# xmcd
#
# Track frame offsets: 
#        150
#        17438
#        33277
#        49226
#        65685
#        81294
#        96538
#        107868
#        124776
#        140151
#        157529
#
# Disc length: 2298 seconds
#
# Revision: 0
# Processed by: cddbd v1.5.2PL0 Copyright (c) Steve Scherf et al.
# Submitted via: ExactAudioCopyFreeDBPlugin 1.0
#
DISCID=9108f80b
DTITLE=State of the Union - Snake Oil
DYEAR=2013
DGENRE=Blues
TTITLE0=Boo Hewerdine and Brooks Williams - Blaze of Glory
TTITLE1=Boo Hewerdine and Brooks Williams - Haunted
TTITLE2=Boo Hewerdine and Brooks Williams - Snake Oil
TTITLE3=Boo Hewerdine and Brooks Williams - Daydreamin'
TTITLE4=Boo Hewerdine and Brooks Williams - Going Away
TTITLE5=Boo Hewerdine and Brooks Williams - Man with the Hammer
TTITLE6=Boo Hewerdine and Brooks Williams - Hellzapoppin'
TTITLE7=Boo Hewerdine and Brooks Williams - Rags and Bones
TTITLE8=Boo Hewerdine and Brooks Williams - Leaving in Her Eyes
TTITLE9=Boo Hewerdine and Brooks Williams - Georgia
TTITLE10=Boo Hewerdine and Brooks Williams - Beyond the Next Horizon
EXTD=
EXTT0=
EXTT1=
EXTT2=
EXTT3=
EXTT4=
EXTT5=
EXTT6=
EXTT7=
EXTT8=
EXTT9=
EXTT10=
PLAYORDER=
